<svg width="1110" height="293" viewBox="0 0 1110 293" fill="none" xmlns="http://www.w3.org/2000/svg">
<path d="M172.977 259.916L161.708 254.352L153.961 250.179L149.031 247.397L142.693 243.92L139.876 242.529L136.354 240.443L131.424 237.661L125.086 234.183L118.748 231.401L114.522 229.315L108.184 226.533L100.436 223.751L92.6895 221.665L84.2382 219.578L77.1955 217.492L70.1528 216.101L63.8143 215.405H54.6588L46.9118 216.101L38.4998 217.134L34.2349 217.833L28.7162 219.23L20.3302 222.36L23.1256 219.578L27.8964 216.101L37.052 211.928L45.5032 209.146L53.2502 207.059L65.9271 205.668H77.8998L91.281 206.364L94.8023 207.059L99.028 207.755L99.7322 195.932L100.436 188.281L102.549 176.458L105.366 163.939L108.184 153.507L111.001 144.466L114.522 135.425L117.339 127.774L120.86 120.124L128.607 104.823L132.129 97.173L127.903 99.9549L123.678 105.519L120.86 110.387L118.043 116.647L113.818 125.688L110.296 135.425L108.184 140.988L103.958 153.507L102.549 160.143L99.028 149.334L94.8023 140.988L89.8724 133.338L84.2382 127.774L77.1955 121.515L58.1801 106.91L52.546 102.041L47.6161 97.173L42.6861 91.6091L37.7562 84.6543L32.1221 76.3085L29.305 70.0492L27.1922 63.0943L25.7836 57.5304V35.9705L26.4879 27.6247L27.8964 22.5576L29.305 18.5834L30.7135 14.4105L32.8263 9.54209L36.3477 2.58726L37.7562 1.19629V44.3163L38.4605 51.9666L39.1648 56.1395L41.9819 64.4853L44.799 71.4401L47.6161 77.004L50.4332 81.8724L53.9545 86.7408L56.0673 89.5227L58.8844 92.3046L61.7015 95.782L94.0981 127.774L96.9151 129.861L91.281 121.515L85.6468 114.56L82.1254 109.692L78.6041 106.91L75.787 103.432L72.9699 100.65L68.04 94.3911L63.8143 89.5227L60.9972 84.6543L56.7716 77.004L53.2502 71.4401L50.4332 64.4853L48.3203 58.9214L44.799 48.4892V18.5834L46.9118 24.1472L51.8417 30.4066L57.4759 35.9705L62.4058 40.1434L65.9271 42.2298L70.1528 45.0117L75.0827 47.7937L80.0126 51.2711L83.534 53.3575L84.9425 54.053V49.1846L91.9852 51.2711L99.7322 54.053L105.366 56.835L110.296 59.6169L115.93 63.0943L120.156 66.5717L125.79 72.1356L129.312 76.3085L131.424 79.7859L134.242 86.7408L135.65 88.8272L138.467 86.7408L144.806 81.1769L148.327 78.3949L152.553 74.9175L156.778 72.1356L161.708 69.3537L168.047 66.5717L175.794 63.7898L180.724 62.3988L187.766 60.3124L193.4 58.9214L199.387 57.8782L202.556 57.5304V64.4853L205.373 65.1808L210.303 62.3988L215.233 60.3124L219.459 58.9214L225.797 57.5304L230.023 56.1395L235.657 54.053L239.178 51.2711L244.108 46.4027L246.925 44.3163L248.334 43.6208L247.629 48.4892L246.221 54.053L244.812 60.3124L241.995 68.6582L240.587 72.1356L238.474 77.004L234.248 83.2633L230.727 87.4362L226.501 92.3046L221.571 97.173L215.937 101.346L211.712 104.823L203.965 111.778L210.303 108.996L215.937 105.519L220.867 102.737L225.093 99.2595L227.91 97.173L232.84 92.3046L237.77 86.7408L241.995 80.4814L247.629 70.0492L251.855 61.0079L253.968 53.3575L255.376 43.6208L259.602 39.4479L262.419 35.9705L264.532 31.7976L266.645 25.5382L267.349 24.1472L268.758 29.7111L269.462 33.884V56.1395L268.758 62.3988L266.645 69.3537L261.011 83.2633L256.785 90.2182L251.855 96.4775L244.108 103.432L237.065 108.996L225.093 114.56L211.712 119.428L197.626 122.906L182.132 126.383L170.159 129.861L158.187 134.034L149.031 139.597L138.467 146.552L133.185 150.745L127.95 156.336L122.269 164.635L117.339 172.981L113.973 178.698L111.877 184.988L111.001 189.672V211.928L115.226 213.319L120.156 215.405L123.678 216.796V172.981L126.495 167.417L130.72 161.157L133.185 158.028L135.65 154.898L143.397 149.334L149.031 145.161L153.107 142.359L161.493 154.938L170.159 167.417L179.315 181.327L187.35 192.675L197.626 207.755L203.26 216.101L209.014 224.122L216.641 234.183L219.459 237.661V155.594L217.346 152.812L214.529 150.03L211.007 149.334H207.486V143.075H241.995V149.334H237.77L233.544 152.116L231.431 154.898V271.044H216.641L135.65 154.898L133.185 158.028V225.142L144.806 234.183L153.961 242.529L158.891 246.702L172.977 259.916Z" fill="url(#paint0_linear_168_184)"/>
<path d="M24.3751 225.142L13.811 229.315L8.45018 231.809L3.5584 235.574L1.46191 238.099L9.58535 235.574L15.4385 233.906L22.2623 232.792L27.8964 232.196H34.2349L44.0947 232.892L53.2502 234.183L58.8844 235.574L66.6314 238.356L83.534 245.311L91.9852 249.484L102.093 254.172L110.296 258.525L118.748 263.394L126.495 267.566L132.841 270.944L139.83 274.438L146.214 277.303L153.806 280.727L158.698 282.824L164.525 284.954L169.18 286.318L174.072 287.715L185.253 290.511L189.879 291.213L194.338 291.908H203.26L210.411 291.213L216.002 290.511L222.98 289.126L227.91 287.735L232.774 286.318L237.065 284.954L243.955 282.125L249.546 279.39L253.968 276.608L257.232 273.04L253.04 274.438L248.148 276.534L243.256 277.932L239.063 278.631L233.473 279.39H217.346L207.486 278.694L199.035 277.303L190.583 275.217L175.089 268.957L144.101 253.657L127.199 244.615L114.522 238.356L102.549 232.792L90.5767 228.619L79.3083 225.142L68.7442 223.056L62.4058 222.36H38.4605L32.1221 223.056L24.3751 225.142Z" fill="url(#paint1_linear_168_184)"/>
<path d="M24.3751 224.808L13.811 228.98L8.45018 231.475L3.5584 235.24L1.46191 237.764L9.58535 235.24L15.4385 233.571L22.2623 232.458L27.8964 231.862H34.2349L44.0947 232.557L53.2502 233.849L58.8844 235.24L66.6314 238.022L83.534 244.977L91.9852 249.15L102.093 253.837L110.296 258.191L118.748 263.059L126.495 267.232L132.841 270.609L139.83 274.103L146.214 276.969L153.806 280.393L158.698 282.489L164.525 284.619L169.18 285.983L174.072 287.381L185.253 290.176L189.879 290.879L194.338 291.574H203.26L210.411 290.879L216.002 290.176L222.98 288.792L227.91 287.401L232.774 285.983L237.065 284.619L243.955 281.79L249.546 279.055L253.968 276.273L257.232 272.706L253.04 274.103L248.148 276.2L243.256 277.597L239.063 278.296L233.473 279.055H217.346L207.486 278.36L199.035 276.969L190.583 274.882L175.089 268.623L144.101 253.322L127.199 244.281L114.522 238.022L102.549 232.458L90.5767 228.285L79.3083 224.808L68.7442 222.721L62.4058 222.026H38.4605L32.1221 222.721L24.3751 224.808Z" fill="#1D3B51"/>
<path d="M135.65 154.898L143.397 149.334L149.031 145.161L153.107 142.359L161.493 154.938L170.159 167.417L179.315 181.327L187.35 192.675L197.626 207.755L203.26 216.101L209.014 224.122L216.641 234.183L219.459 237.661V155.594L217.346 152.812L214.529 150.03L211.007 149.334H207.486V143.075H241.995V149.334H237.77L233.544 152.116L231.431 154.898V271.044H216.641L135.65 154.898ZM135.65 154.898L133.185 158.028M133.185 158.028L130.72 161.157L126.495 167.417L123.678 172.981V216.796L120.156 215.405L115.226 213.319L111.001 211.928V189.672L111.877 184.988L113.973 178.698L117.339 172.981L122.269 164.635L127.95 156.336L133.185 150.745L138.467 146.552L149.031 139.597L158.187 134.034L170.159 129.861L182.132 126.383L197.626 122.906L211.712 119.428L225.093 114.56L237.065 108.996L244.108 103.432L251.855 96.4775L256.785 90.2182L261.011 83.2633L266.645 69.3537L268.758 62.3988L269.462 56.1395V33.884L268.758 29.7111L267.349 24.1472L266.645 25.5382L264.532 31.7976L262.419 35.9705L259.602 39.4479L255.376 43.6208L253.968 53.3575L251.855 61.0079L247.629 70.0492L241.995 80.4814L237.77 86.7408L232.84 92.3046L227.91 97.173L225.093 99.2595L220.867 102.737L215.937 105.519L210.303 108.996L203.965 111.778L211.712 104.823L215.937 101.346L221.571 97.173L226.501 92.3046L230.727 87.4362L234.248 83.2633L238.474 77.004L240.587 72.1356L241.995 68.6582L244.812 60.3124L246.221 54.053L247.629 48.4892L248.334 43.6208L246.925 44.3163L244.108 46.4027L239.178 51.2711L235.657 54.053L230.023 56.1395L225.797 57.5304L219.459 58.9214L215.233 60.3124L210.303 62.3988L205.373 65.1808L202.556 64.4853V57.5304L199.387 57.8782L193.4 58.9214L187.766 60.3124L180.724 62.3988L175.794 63.7898L168.047 66.5717L161.708 69.3537L156.778 72.1356L152.553 74.9175L148.327 78.3949L144.806 81.1769L138.467 86.7408L135.65 88.8272L134.242 86.7408L131.424 79.7859L129.312 76.3085L125.79 72.1356L120.156 66.5717L115.93 63.0943L110.296 59.6169L105.366 56.835L99.7322 54.053L91.9852 51.2711L84.9425 49.1846V54.053L83.534 53.3575L80.0126 51.2711L75.0827 47.7937L70.1528 45.0117L65.9271 42.2298L62.4058 40.1434L57.4759 35.9705L51.8417 30.4066L46.9118 24.1472L44.799 18.5834V48.4892L48.3203 58.9214L50.4332 64.4853L53.2502 71.4401L56.7716 77.004L60.9972 84.6543L63.8143 89.5227L68.04 94.3911L72.9699 100.65L75.787 103.432L78.6041 106.91L82.1254 109.692L85.6468 114.56L91.281 121.515L96.9151 129.861L94.0981 127.774L61.7015 95.782L58.8844 92.3046L56.0673 89.5227L53.9545 86.7408L50.4332 81.8724L47.6161 77.004L44.799 71.4401L41.9819 64.4853L39.1648 56.1395L38.4605 51.9666L37.7562 44.3163V1.19629L36.3477 2.58726L32.8263 9.54209L30.7135 14.4105L29.305 18.5834L27.8964 22.5576L26.4879 27.6247L25.7836 35.9705V57.5304L27.1922 63.0943L29.305 70.0492L32.1221 76.3085L37.7562 84.6543L42.6861 91.6091L47.6161 97.173L52.546 102.041L58.1801 106.91L77.1955 121.515L84.2382 127.774L89.8724 133.338L94.8023 140.988L99.028 149.334L102.549 160.143L103.958 153.507L108.184 140.988L110.296 135.425L113.818 125.688L118.043 116.647L120.86 110.387L123.678 105.519L127.903 99.9549L132.129 97.173L128.607 104.823L120.86 120.124L117.339 127.774L114.522 135.425L111.001 144.466L108.184 153.507L105.366 163.939L102.549 176.458L100.436 188.281L99.7322 195.932L99.028 207.755L94.8023 207.059L91.281 206.364L77.8998 205.668H65.9271L53.2502 207.059L45.5032 209.146L37.052 211.928L27.8964 216.101L23.1256 219.578L20.3302 222.36L28.7162 219.23L34.2349 217.833L38.4998 217.134L46.9118 216.101L54.6588 215.405H63.8143L70.1528 216.101L77.1955 217.492L84.2382 219.578L92.6895 221.665L100.436 223.751L108.184 226.533L114.522 229.315L118.748 231.401L125.086 234.183L131.424 237.661L136.354 240.443L139.876 242.529L142.693 243.92L149.031 247.397L153.961 250.179L161.708 254.352L172.977 259.916L158.891 246.702L153.961 242.529L144.806 234.183L133.185 225.142V158.028ZM13.811 229.315L24.3751 225.142L32.1221 223.056L38.4605 222.36H62.4058L68.7442 223.056L79.3083 225.142L90.5767 228.619L102.549 232.792L114.522 238.356L127.199 244.615L144.101 253.657L175.089 268.957L190.583 275.217L199.035 277.303L207.486 278.694L217.346 279.39H233.473L239.063 278.631L243.256 277.932L248.148 276.534L253.04 274.438L257.232 273.04L253.968 276.608L249.546 279.39L243.955 282.125L237.065 284.954L232.774 286.318L227.91 287.735L222.98 289.126L216.002 290.511L210.411 291.213L203.26 291.908H194.338L189.879 291.213L185.253 290.511L174.072 287.715L169.18 286.318L164.525 284.954L158.698 282.824L153.806 280.727L146.214 277.303L139.83 274.438L132.841 270.944L126.495 267.566L118.748 263.394L110.296 258.525L102.093 254.172L91.9852 249.484L83.534 245.311L66.6314 238.356L58.8844 235.574L53.2502 234.183L44.0947 232.892L34.2349 232.196H27.8964L22.2623 232.792L15.4385 233.906L9.58535 235.574L1.46191 238.099L3.5584 235.574L8.45018 231.809L13.811 229.315ZM103.254 114.56L98.3237 108.301L95.5066 104.823L93.3938 100.65L89.1681 90.9136L86.3511 84.6543L83.534 77.004L82.1254 71.4401L81.4211 67.9627V58.2259L83.9235 61.2954L86.3511 64.4853L87.7596 67.9627L90.5767 77.004L93.3938 84.6543L95.5066 90.9136L96.9151 94.3911L99.7322 100.65L101.845 106.91L103.254 114.56ZM13.811 228.98L24.3751 224.808L32.1221 222.721L38.4605 222.026H62.4058L68.7442 222.721L79.3083 224.808L90.5767 228.285L102.549 232.458L114.522 238.022L127.199 244.281L144.101 253.322L175.089 268.623L190.583 274.882L199.035 276.969L207.486 278.36L217.346 279.055H233.473L239.063 278.296L243.256 277.597L248.148 276.2L253.04 274.103L257.232 272.706L253.968 276.273L249.546 279.055L243.955 281.79L237.065 284.619L232.774 285.983L227.91 287.401L222.98 288.792L216.002 290.176L210.411 290.879L203.26 291.574H194.338L189.879 290.879L185.253 290.176L174.072 287.381L169.18 285.983L164.525 284.619L158.698 282.489L153.806 280.393L146.214 276.969L139.83 274.103L132.841 270.609L126.495 267.232L118.748 263.059L110.296 258.191L102.093 253.837L91.9852 249.15L83.534 244.977L66.6314 238.022L58.8844 235.24L53.2502 233.849L44.0947 232.557L34.2349 231.862H27.8964L22.2623 232.458L15.4385 233.571L9.58535 235.24L1.46191 237.764L3.5584 235.24L8.45018 231.475L13.811 228.98Z" stroke="#1D3B51"/>
<path d="M374.462 122.696L329.462 77.7796V120.196H315.462V42.6963L360.462 87.5296V45.1963H374.462V122.696ZM432.629 121.696C427.129 121.696 421.99 120.696 417.212 118.696C412.434 116.641 408.212 113.835 404.545 110.28C400.934 106.724 398.101 102.585 396.045 97.863C393.99 93.1407 392.962 88.0852 392.962 82.6963C392.962 77.3074 393.99 72.2518 396.045 67.5296C398.101 62.8074 400.934 58.6685 404.545 55.113C408.212 51.5574 412.434 48.7796 417.212 46.7796C421.99 44.7241 427.129 43.6963 432.629 43.6963C438.129 43.6963 443.267 44.7241 448.045 46.7796C452.823 48.7796 457.017 51.5574 460.629 55.113C464.295 58.6685 467.156 62.8074 469.212 67.5296C471.267 72.2518 472.295 77.3074 472.295 82.6963C472.295 88.0852 471.267 93.1407 469.212 97.863C467.156 102.585 464.295 106.724 460.629 110.28C457.017 113.835 452.823 116.641 448.045 118.696C443.267 120.696 438.129 121.696 432.629 121.696ZM432.629 107.196C437.129 107.196 441.184 106.113 444.795 103.946C448.406 101.724 451.267 98.7518 453.379 95.0296C455.545 91.3074 456.629 87.1963 456.629 82.6963C456.629 78.1407 455.545 74.0296 453.379 70.363C451.267 66.6407 448.406 63.6963 444.795 61.5296C441.184 59.3074 437.129 58.1963 432.629 58.1963C428.129 58.1963 424.045 59.3074 420.379 61.5296C416.767 63.6963 413.906 66.6407 411.795 70.363C409.684 74.0296 408.629 78.1407 408.629 82.6963C408.629 87.1963 409.684 91.3074 411.795 95.0296C413.906 98.7518 416.767 101.724 420.379 103.946C424.045 106.113 428.129 107.196 432.629 107.196ZM491.071 120.196V45.1963H513.988C519.432 45.1963 524.071 46.2796 527.905 48.4463C531.794 50.613 534.766 53.5018 536.821 57.113C538.877 60.6685 539.905 64.5852 539.905 68.863C539.905 72.7518 539.044 76.2796 537.321 79.4463C535.655 82.613 533.266 85.2241 530.155 87.2796L549.988 120.196H533.571L516.905 91.6963H505.571V120.196H491.071ZM505.571 79.1963H513.655C516.377 79.1963 518.599 78.6963 520.321 77.6963C522.044 76.6407 523.321 75.3352 524.155 73.7796C524.988 72.1685 525.405 70.5296 525.405 68.863C525.405 65.9185 524.321 63.5018 522.155 61.613C519.988 59.6685 517.155 58.6963 513.655 58.6963H505.571V79.1963ZM553.142 58.6963V45.1963H605.308V58.6963H586.975V120.196H571.475V58.6963H553.142ZM622.821 120.196V45.1963H637.321V69.1963H658.988V45.1963H673.488V120.196H658.988V82.6963H637.321V120.196H622.821ZM695.501 120.196V45.1963H735.501V58.1963H710.001V69.6963H729.668V82.1963H710.001V106.696H735.501V120.196H695.501ZM754.251 120.196V45.1963H777.168C782.612 45.1963 787.251 46.2796 791.084 48.4463C794.973 50.613 797.945 53.5018 800.001 57.113C802.057 60.6685 803.084 64.5852 803.084 68.863C803.084 72.7518 802.223 76.2796 800.501 79.4463C798.834 82.613 796.445 85.2241 793.334 87.2796L813.168 120.196H796.751L780.084 91.6963H768.751V120.196H754.251ZM768.751 79.1963H776.834C779.557 79.1963 781.779 78.6963 783.501 77.6963C785.223 76.6407 786.501 75.3352 787.334 73.7796C788.168 72.1685 788.584 70.5296 788.584 68.863C788.584 65.9185 787.501 63.5018 785.334 61.613C783.168 59.6685 780.334 58.6963 776.834 58.6963H768.751V79.1963ZM885.681 122.696L840.681 77.7796V120.196H826.681V42.6963L871.681 87.5296V45.1963H885.681V122.696ZM334.712 281.863C330.156 281.863 325.823 281.03 321.712 279.363C317.656 277.641 314.406 275.585 311.962 273.196L316.045 256.53C317.99 259.919 320.74 262.752 324.295 265.03C327.851 267.252 331.49 268.363 335.212 268.363C338.267 268.363 340.656 267.53 342.379 265.863C344.156 264.196 345.045 262.169 345.045 259.78C345.045 257.835 344.573 256.224 343.629 254.946C342.74 253.669 341.656 252.613 340.379 251.78C339.156 250.946 338.073 250.307 337.129 249.863L328.295 245.446C325.74 244.169 323.295 242.669 320.962 240.946C318.629 239.169 316.712 236.974 315.212 234.363C313.767 231.752 313.045 228.53 313.045 224.696C313.045 220.474 313.99 216.78 315.879 213.613C317.823 210.446 320.545 207.974 324.045 206.196C327.545 204.419 331.656 203.53 336.379 203.53C340.823 203.53 344.767 204.252 348.212 205.696C351.712 207.085 354.545 208.585 356.712 210.196L352.879 226.446C350.656 223.557 347.99 221.252 344.879 219.53C341.823 217.752 338.767 216.863 335.712 216.863C332.99 216.863 330.879 217.557 329.379 218.946C327.934 220.335 327.212 222.057 327.212 224.113C327.212 225.391 327.49 226.53 328.045 227.53C328.656 228.53 329.517 229.419 330.629 230.196C331.74 230.974 333.045 231.752 334.545 232.53L343.462 236.946C344.962 237.669 346.601 238.613 348.379 239.78C350.156 240.891 351.879 242.307 353.545 244.03C355.212 245.752 356.573 247.835 357.629 250.28C358.684 252.669 359.212 255.53 359.212 258.863C359.212 263.196 358.212 267.113 356.212 270.613C354.212 274.057 351.379 276.807 347.712 278.863C344.101 280.863 339.767 281.863 334.712 281.863ZM376.423 280.196V205.196H416.423V218.196H390.923V229.696H410.59V242.196H390.923V266.696H416.423V280.196H376.423ZM427.923 280.196L461.006 202.53H461.173L494.256 280.196H479.173L473.59 266.863H448.09L442.506 280.196H427.923ZM453.09 254.863H468.59L465.34 247.196C464.451 245.141 463.617 243.169 462.84 241.28C462.117 239.335 461.423 237.085 460.756 234.53C460.145 237.03 459.478 239.252 458.756 241.196C458.034 243.141 457.228 245.141 456.34 247.196L453.09 254.863ZM509.243 280.196V205.196H549.243V217.696H523.743V229.696H546.743V242.196H523.743V280.196H509.243ZM601.449 281.696C595.949 281.696 590.81 280.696 586.032 278.696C581.254 276.641 577.032 273.835 573.366 270.28C569.754 266.724 566.921 262.585 564.866 257.863C562.81 253.141 561.782 248.085 561.782 242.696C561.782 237.307 562.81 232.252 564.866 227.53C566.921 222.807 569.754 218.669 573.366 215.113C577.032 211.557 581.254 208.78 586.032 206.78C590.81 204.724 595.949 203.696 601.449 203.696C606.949 203.696 612.088 204.724 616.866 206.78C621.643 208.78 625.838 211.557 629.449 215.113C633.116 218.669 635.977 222.807 638.032 227.53C640.088 232.252 641.116 237.307 641.116 242.696C641.116 248.085 640.088 253.141 638.032 257.863C635.977 262.585 633.116 266.724 629.449 270.28C625.838 273.835 621.643 276.641 616.866 278.696C612.088 280.696 606.949 281.696 601.449 281.696ZM601.449 267.196C605.949 267.196 610.004 266.113 613.616 263.946C617.227 261.724 620.088 258.752 622.199 255.03C624.366 251.307 625.449 247.196 625.449 242.696C625.449 238.141 624.366 234.03 622.199 230.363C620.088 226.641 617.227 223.696 613.616 221.53C610.004 219.307 605.949 218.196 601.449 218.196C596.949 218.196 592.866 219.307 589.199 221.53C585.588 223.696 582.727 226.641 580.616 230.363C578.504 234.03 577.449 238.141 577.449 242.696C577.449 247.196 578.504 251.307 580.616 255.03C582.727 258.752 585.588 261.724 589.199 263.946C592.866 266.113 596.949 267.196 601.449 267.196ZM695.808 281.696C690.308 281.696 685.169 280.696 680.392 278.696C675.614 276.641 671.392 273.835 667.725 270.28C664.114 266.724 661.28 262.585 659.225 257.863C657.169 253.141 656.142 248.085 656.142 242.696C656.142 237.307 657.169 232.252 659.225 227.53C661.28 222.807 664.114 218.669 667.725 215.113C671.392 211.557 675.614 208.78 680.392 206.78C685.169 204.724 690.308 203.696 695.808 203.696C701.308 203.696 706.447 204.724 711.225 206.78C716.003 208.78 720.197 211.557 723.808 215.113C727.475 218.669 730.336 222.807 732.392 227.53C734.447 232.252 735.475 237.307 735.475 242.696C735.475 248.085 734.447 253.141 732.392 257.863C730.336 262.585 727.475 266.724 723.808 270.28C720.197 273.835 716.003 276.641 711.225 278.696C706.447 280.696 701.308 281.696 695.808 281.696ZM695.808 267.196C700.308 267.196 704.364 266.113 707.975 263.946C711.586 261.724 714.447 258.752 716.558 255.03C718.725 251.307 719.808 247.196 719.808 242.696C719.808 238.141 718.725 234.03 716.558 230.363C714.447 226.641 711.586 223.696 707.975 221.53C704.364 219.307 700.308 218.196 695.808 218.196C691.308 218.196 687.225 219.307 683.558 221.53C679.947 223.696 677.086 226.641 674.975 230.363C672.864 234.03 671.808 238.141 671.808 242.696C671.808 247.196 672.864 251.307 674.975 255.03C677.086 258.752 679.947 261.724 683.558 263.946C687.225 266.113 691.308 267.196 695.808 267.196ZM754.001 280.196V205.196H779.501C785.501 205.196 790.945 206.169 795.834 208.113C800.779 210.057 805.029 212.752 808.584 216.196C812.195 219.585 814.973 223.557 816.918 228.113C818.862 232.669 819.834 237.53 819.834 242.696C819.834 247.863 818.862 252.724 816.918 257.28C814.973 261.835 812.195 265.835 808.584 269.28C805.029 272.669 800.779 275.335 795.834 277.28C790.945 279.224 785.501 280.196 779.501 280.196H754.001ZM768.501 266.696H778.168C782.39 266.696 786.112 266.085 789.334 264.863C792.557 263.585 795.251 261.863 797.418 259.696C799.64 257.474 801.307 254.919 802.418 252.03C803.584 249.141 804.168 246.03 804.168 242.696C804.168 239.363 803.584 236.252 802.418 233.363C801.307 230.419 799.64 227.863 797.418 225.696C795.251 223.474 792.557 221.752 789.334 220.53C786.112 219.307 782.39 218.696 778.168 218.696H768.501V266.696ZM855.892 281.863C851.336 281.863 847.003 281.03 842.892 279.363C838.836 277.641 835.586 275.585 833.142 273.196L837.225 256.53C839.169 259.919 841.919 262.752 845.475 265.03C849.03 267.252 852.669 268.363 856.392 268.363C859.447 268.363 861.836 267.53 863.558 265.863C865.336 264.196 866.225 262.169 866.225 259.78C866.225 257.835 865.753 256.224 864.808 254.946C863.919 253.669 862.836 252.613 861.558 251.78C860.336 250.946 859.253 250.307 858.308 249.863L849.475 245.446C846.919 244.169 844.475 242.669 842.142 240.946C839.808 239.169 837.892 236.974 836.392 234.363C834.947 231.752 834.225 228.53 834.225 224.696C834.225 220.474 835.169 216.78 837.058 213.613C839.003 210.446 841.725 207.974 845.225 206.196C848.725 204.419 852.836 203.53 857.558 203.53C862.003 203.53 865.947 204.252 869.392 205.696C872.892 207.085 875.725 208.585 877.892 210.196L874.058 226.446C871.836 223.557 869.169 221.252 866.058 219.53C863.003 217.752 859.947 216.863 856.892 216.863C854.169 216.863 852.058 217.557 850.558 218.946C849.114 220.335 848.392 222.057 848.392 224.113C848.392 225.391 848.669 226.53 849.225 227.53C849.836 228.53 850.697 229.419 851.808 230.196C852.919 230.974 854.225 231.752 855.725 232.53L864.642 236.946C866.142 237.669 867.78 238.613 869.558 239.78C871.336 240.891 873.058 242.307 874.725 244.03C876.392 245.752 877.753 247.835 878.808 250.28C879.864 252.669 880.392 255.53 880.392 258.863C880.392 263.196 879.392 267.113 877.392 270.613C875.392 274.057 872.558 276.807 868.892 278.863C865.28 280.863 860.947 281.863 855.892 281.863Z" fill="#1D3B51"/>
<defs>
<linearGradient id="paint0_linear_168_184" x1="133.89" y1="291.908" x2="133.89" y2="1.19629" gradientUnits="userSpaceOnUse">
<stop stop-color="#BA8B47"/>
<stop offset="0.5" stop-color="#F1CE80"/>
<stop offset="1" stop-color="#B8883E"/>
</linearGradient>
<linearGradient id="paint1_linear_168_184" x1="133.89" y1="291.908" x2="133.89" y2="1.19629" gradientUnits="userSpaceOnUse">
<stop stop-color="#BA8B47"/>
<stop offset="0.5" stop-color="#F1CE80"/>
<stop offset="1" stop-color="#B8883E"/>
</linearGradient>
</defs>
</svg>
