<svg width="624" height="556" viewBox="0 0 624 556" fill="none" xmlns="http://www.w3.org/2000/svg">
<path d="M48.1314 47.4792C44.0834 51.5272 38.0114 53.7272 32.6434 53.7272C17.4194 53.7272 11.5234 43.0792 11.4354 32.8712C11.3474 22.5752 17.7714 11.4872 32.6434 11.4872C38.0114 11.4872 43.4674 13.3352 47.5154 17.2952L55.2594 9.81517C48.9234 3.56717 41.0034 0.39917 32.6434 0.39917C10.3794 0.39917 -0.0925771 16.7672 -0.00457704 32.8712C0.083423 48.8872 9.76342 64.6392 32.6434 64.6392C41.5314 64.6392 49.7154 61.7352 56.0514 55.4872L48.1314 47.4792Z" fill="black"/>
<path d="M81.3638 18.9672C67.5478 18.9672 58.9238 29.1752 58.9238 41.5832C58.9238 54.0792 67.3718 64.1992 81.4518 64.1992C95.5318 64.1992 104.068 54.0792 104.068 41.5832C104.068 29.1752 95.1798 18.9672 81.3638 18.9672ZM81.4518 28.7352C88.6678 28.7352 93.2438 35.0712 93.2438 41.5832C93.2438 48.1832 89.2838 54.3432 81.4518 54.3432C73.6198 54.3432 69.6598 48.1832 69.6598 41.5832C69.6598 35.0712 73.7078 28.7352 81.4518 28.7352Z" fill="black"/>
<path d="M154.159 63.2312V40.4392C154.159 26.7992 145.975 19.1432 135.767 19.1432C130.311 19.1432 125.911 21.3432 121.511 25.6552L120.807 19.7592H111.215V63.2312H121.863V41.0552C121.863 34.4552 126.351 28.9112 132.951 28.9112C139.815 28.9112 143.423 33.9272 143.423 40.5272V63.2312H154.159Z" fill="black"/>
<path d="M165.895 8.75917V19.9352H157.799V29.1752H165.895V47.9192C165.895 58.7432 172.055 64.1112 181.471 63.7592C184.727 63.6712 187.279 63.1432 190.359 61.9112L187.367 52.7592C185.783 53.5512 183.847 54.0792 182.175 54.0792C178.831 54.0792 176.543 52.0552 176.543 47.9192V29.1752H188.599V19.9352H176.631V7.61517L165.895 8.75917Z" fill="black"/>
<path d="M230.699 25.8312C228.235 21.5192 222.691 18.7912 216.883 18.7912C204.211 18.7032 194.267 26.5352 194.267 41.4952C194.267 56.7192 203.771 64.6392 216.619 64.5512C221.459 64.4632 228.235 61.9992 230.699 56.8952L231.227 63.2312H241.347V19.8472H231.051L230.699 25.8312ZM217.851 28.3832C234.747 28.3832 234.747 54.6952 217.851 54.6952C210.723 54.6952 205.003 49.7672 205.003 41.4952C205.003 33.2232 210.723 28.3832 217.851 28.3832Z" fill="black"/>
<path d="M281.393 50.6472C278.753 53.2872 275.321 54.2552 271.889 54.2552C265.201 54.2552 259.569 49.8552 259.569 41.5832C259.569 34.0152 264.849 28.7352 272.065 28.7352C275.057 28.7352 278.225 29.8792 280.777 32.1672L287.553 25.0392C282.801 20.3752 278.049 18.6152 271.889 18.6152C259.305 18.6152 248.833 26.1832 248.833 41.5832C248.833 56.9832 259.305 64.5512 271.889 64.5512C278.313 64.5512 283.593 62.6152 288.609 57.6872L281.393 50.6472Z" fill="black"/>
<path d="M297.723 8.75917V19.9352H289.627V29.1752H297.723V47.9192C297.723 58.7432 303.883 64.1112 313.299 63.7592C316.555 63.6712 319.107 63.1432 322.187 61.9112L319.195 52.7592C317.611 53.5512 315.675 54.0792 314.003 54.0792C310.659 54.0792 308.371 52.0552 308.371 47.9192V29.1752H320.427V19.9352H308.459V7.61517L297.723 8.75917Z" fill="black"/>
<path d="M389.556 1.71917V37.0072C389.556 47.5672 384.1 53.9912 374.508 53.9912C364.916 53.9912 358.58 48.0952 358.58 37.0072V1.71917H347.052V37.0072C347.052 55.5752 359.636 64.5512 374.42 64.5512C389.908 64.5512 401.084 55.2232 401.084 37.0072V1.71917H389.556Z" fill="black"/>
<path d="M445.979 24.3352C440.963 19.9352 435.859 18.6152 429.083 18.6152C421.163 18.6152 410.779 22.1352 410.779 32.1672C410.779 42.0232 420.547 45.0152 428.731 45.6312C434.891 45.9832 437.355 47.2152 437.355 50.2072C437.355 53.3752 433.571 55.4872 429.523 55.3992C424.683 55.3112 417.643 52.7592 414.563 49.3272L409.283 56.9832C415.619 63.5832 422.483 64.7272 429.347 64.7272C441.755 64.7272 448.003 58.1272 448.003 50.4712C448.003 38.9432 437.619 37.0952 429.435 36.5672C423.891 36.2152 421.339 34.6312 421.339 31.8152C421.339 29.0872 424.155 27.5032 429.259 27.5032C433.395 27.5032 436.915 28.4712 439.995 31.3752L445.979 24.3352Z" fill="black"/>
<path d="M48.1314 183.479C44.0834 187.527 38.0114 189.727 32.6434 189.727C17.4194 189.727 11.5234 179.079 11.4354 168.871C11.3474 158.575 17.7714 147.487 32.6434 147.487C38.0114 147.487 43.4674 149.335 47.5154 153.295L55.2594 145.815C48.9234 139.567 41.0034 136.399 32.6434 136.399C10.3794 136.399 -0.0925771 152.767 -0.00457704 168.871C0.083423 184.887 9.76342 200.639 32.6434 200.639C41.5314 200.639 49.7154 197.735 56.0514 191.487L48.1314 183.479Z" fill="black"/>
<path d="M81.3638 154.967C67.5478 154.967 58.9238 165.175 58.9238 177.583C58.9238 190.079 67.3718 200.199 81.4518 200.199C95.5318 200.199 104.068 190.079 104.068 177.583C104.068 165.175 95.1798 154.967 81.3638 154.967ZM81.4518 164.735C88.6678 164.735 93.2438 171.071 93.2438 177.583C93.2438 184.183 89.2838 190.343 81.4518 190.343C73.6198 190.343 69.6598 184.183 69.6598 177.583C69.6598 171.071 73.7078 164.735 81.4518 164.735Z" fill="black"/>
<path d="M151.079 199.231V175.999C151.079 170.279 154.687 165.263 160.495 165.263C166.303 165.263 168.679 170.103 168.679 175.823V199.231H179.415V175.823C179.415 162.799 173.343 155.231 161.023 155.231C155.391 155.231 150.375 156.991 146.503 163.151C144.039 157.167 138.847 155.055 133.655 155.055C129.519 155.055 124.503 156.639 122.215 161.039L121.423 155.759H111.479V199.231H122.215V175.999C122.215 170.279 125.647 165.087 131.455 165.087C137.351 165.087 140.343 170.279 140.343 175.999V199.231H151.079Z" fill="black"/>
<path d="M213.534 189.903C206.23 189.903 201.214 184.359 201.214 177.583C201.214 170.807 205.79 165.263 213.534 165.263C221.278 165.263 225.854 170.807 225.854 177.583C225.854 184.359 220.838 189.903 213.534 189.903ZM200.246 217.359V194.127C203.326 198.879 210.102 200.287 214.678 200.287C228.582 200.287 236.59 190.255 236.59 177.583C236.59 164.823 227.702 154.879 214.326 154.879C209.398 154.879 203.59 156.991 200.246 161.831L199.542 155.847H189.51V217.359H200.246Z" fill="black"/>
<path d="M278.566 161.831C276.102 157.519 270.558 154.791 264.75 154.791C252.078 154.703 242.134 162.535 242.134 177.495C242.134 192.719 251.638 200.639 264.486 200.551C269.326 200.463 276.102 197.999 278.566 192.895L279.094 199.231H289.214V155.847H278.918L278.566 161.831ZM265.718 164.383C282.614 164.383 282.614 190.695 265.718 190.695C258.59 190.695 252.87 185.767 252.87 177.495C252.87 169.223 258.59 164.383 265.718 164.383Z" fill="black"/>
<path d="M340.987 199.231V176.439C340.987 162.799 332.803 155.143 322.595 155.143C317.139 155.143 312.739 157.343 308.339 161.655L307.635 155.759H298.043V199.231H308.691V177.055C308.691 170.455 313.179 164.911 319.779 164.911C326.643 164.911 330.251 169.927 330.251 176.527V199.231H340.987Z" fill="black"/>
<path d="M379.319 155.847L371.399 174.855L366.911 186.823L362.775 174.591L356.175 155.847H343.679L361.015 198.527L352.919 217.359H364.711L391.199 155.847H379.319Z" fill="black"/>
<path d="M426.989 199.231V176.439H457.877V165.703H426.989V148.895H459.637V137.719H415.373V199.231H426.989Z" fill="black"/>
<path d="M487.247 154.967C473.431 154.967 464.807 165.175 464.807 177.583C464.807 190.079 473.255 200.199 487.335 200.199C501.415 200.199 509.951 190.079 509.951 177.583C509.951 165.175 501.063 154.967 487.247 154.967ZM487.335 164.735C494.551 164.735 499.127 171.071 499.127 177.583C499.127 184.183 495.167 190.343 487.335 190.343C479.503 190.343 475.543 184.183 475.543 177.583C475.543 171.071 479.591 164.735 487.335 164.735Z" fill="black"/>
<path d="M517.362 155.847V199.231H528.098V176.351C528.098 168.343 533.29 165.351 538.922 165.351C542.442 165.351 544.466 166.319 546.666 168.167L551.506 158.839C549.13 156.463 544.818 154.703 540.33 154.703C535.93 154.703 531.442 155.495 528.098 160.863L527.306 155.847H517.362Z" fill="black"/>
<path d="M595.118 199.231V175.999C595.118 170.279 598.726 165.263 604.534 165.263C610.342 165.263 612.718 170.103 612.718 175.823V199.231H623.454V175.823C623.454 162.799 617.382 155.231 605.062 155.231C599.43 155.231 594.414 156.991 590.542 163.151C588.078 157.167 582.886 155.055 577.694 155.055C573.558 155.055 568.542 156.639 566.254 161.039L565.462 155.759H555.518V199.231H566.254V175.999C566.254 170.279 569.686 165.087 575.494 165.087C581.39 165.087 584.382 170.279 584.382 175.999V199.231H595.118Z" fill="black"/>
<path d="M207.13 427.639C206.69 428.172 206.218 428.302 205.767 428.359C205.198 428.42 204.682 428.693 204.214 429.06C203.864 429.306 203.535 429.479 203.159 429.678C202.181 429.534 201.308 429.815 200.41 430.049C199.205 430.385 198 430.721 196.843 431.033C196.796 431.057 196.724 431.035 196.677 431.06C195.151 431.927 193.367 431.848 191.712 432.242C190.908 432.426 190.101 432.492 189.324 432.842C189.042 432.991 188.733 432.974 188.401 433.029C187.335 433.172 186.241 433.149 185.174 433.292C184.274 433.407 183.342 433.238 182.389 433.14C182.08 433.123 181.746 433.059 181.461 433.09C179.753 433.271 178.085 433.07 176.369 432.895C174.034 432.685 171.719 432.285 169.451 431.861C167.279 431.505 165.221 430.909 163.138 430.266C160.624 429.49 158.085 428.667 155.616 427.747C154.345 427.276 153.121 426.78 151.917 426.094C151.146 425.659 150.306 425.321 149.56 424.933C148.093 424.205 146.651 423.524 145.278 422.746C143.905 421.969 142.53 421.072 141.179 420.222C140.19 419.602 139.176 418.935 138.187 418.315C138.066 418.199 137.922 418.155 137.801 418.038C134.944 415.819 132.063 413.553 129.185 411.406C126.185 409.142 123.37 406.661 120.697 404.104C118.581 402.035 116.581 399.844 114.465 397.775C111.156 394.472 108.289 390.755 105.4 387.11C103.735 384.983 102.211 382.781 100.614 380.558C99.5591 379.131 98.6452 377.629 97.6841 376.152C97.3886 375.707 96.9272 375.289 96.6317 374.844C96.3113 374.352 96.1568 373.832 95.8834 373.315C95.1157 371.976 94.3232 370.591 93.4615 369.302C92.4535 367.85 91.7743 366.224 90.8602 364.723C89.3248 362.046 88.096 359.267 86.7485 356.491C86.6242 356.256 86.5469 355.996 86.3757 355.786C84.923 353.607 83.987 351.154 82.8881 348.848C82.6396 348.378 82.5569 347.88 82.3553 347.386C82.1786 346.938 82.0267 346.537 81.85 346.089C81.1984 344.629 80.4999 343.194 79.8234 341.687C79.3982 340.769 78.901 339.829 78.7107 338.786C78.6555 338.455 78.4098 338.103 78.3076 337.797C78.0288 337.042 77.7721 336.215 77.4933 335.46C77.3912 335.153 77.289 334.847 77.1647 334.612C76.1569 332.137 75.4338 329.632 74.5918 327.13C73.9293 325.195 73.4325 323.232 72.7948 321.343C72.2095 319.668 71.6961 318.015 71.3705 316.262C71.1223 314.769 70.7082 313.304 70.4848 311.858C70.2035 309.962 69.7566 308.093 69.3095 306.224C68.8045 303.905 68.3465 301.561 68.2201 299.161C68.1486 298.117 67.9112 297.099 67.8397 296.054C67.713 294.678 67.6333 293.276 67.4817 291.853C67.3192 289.954 67.0849 288.033 66.9224 286.134C66.76 284.235 66.5975 282.336 66.482 280.412C66.3774 278.964 66.4387 277.488 66.3589 276.086C66.2792 274.685 66.2713 273.306 66.3573 271.877C66.4794 269.948 66.3169 268.049 66.0826 266.127C65.9696 265.345 66.0002 264.607 66.1717 263.795C66.6393 261.382 66.7505 258.978 66.7181 256.529C66.7102 255.149 66.9177 253.837 67.1723 252.499C67.4711 251.018 67.7229 249.562 67.6405 248.041C67.6268 247.447 67.7072 246.803 67.8593 246.181C68.1442 245.129 68.1665 244.034 68.0701 242.942C67.9792 242.088 67.9353 241.209 67.8665 240.283C67.3252 239.487 66.8556 238.712 65.9882 238.209C65.5076 237.981 65.2121 237.536 65.0106 237.041C64.8339 236.593 64.6102 236.17 64.4114 235.794C64.0992 235.659 63.8117 235.57 63.4996 235.434C63.4305 235.531 63.3366 235.58 63.3393 235.699C63.0708 237.465 62.8493 239.206 62.556 240.925C62.3899 241.976 62.199 242.979 62.3175 243.999C62.3754 244.449 62.2676 244.927 62.1348 245.358C61.9357 246.005 61.9271 246.671 61.9187 247.337C61.9487 248.645 61.8352 249.908 61.4839 251.176C61.0857 252.469 60.8311 253.807 60.5517 255.097C60.4854 255.313 60.4189 255.528 60.4465 255.694C60.6257 257.284 60.3295 258.884 60.6523 260.518C60.8648 261.488 60.8398 262.463 60.6489 263.467C60.5022 264.326 60.4991 265.23 60.3525 266.089C60.25 266.805 60.2912 267.565 60.117 268.259C59.857 269.359 59.8346 270.453 59.9779 271.52C60.124 272.706 60.317 273.867 60.4631 275.053C60.6286 276.048 60.7223 277.021 60.5784 277.999C60.3266 279.456 60.5969 280.877 60.6076 282.375C60.643 283.92 61.2007 285.43 61.2831 286.95C61.3795 288.042 61.476 289.134 61.5724 290.225C61.5999 290.391 61.6275 290.557 61.5832 290.701C61.2375 292.207 61.5797 293.65 61.8997 295.165C62.0846 295.969 62.0567 296.826 62.0759 297.658C62.1032 298.847 62.2963 300.008 62.68 301.188C62.7573 301.448 62.8346 301.708 62.887 301.921C63.1352 303.414 63.3834 304.906 63.6786 306.374C63.8165 307.204 64.0485 307.983 64.2803 308.763C64.6943 310.228 65.0862 311.765 65.5251 313.277C65.5527 313.443 65.5803 313.609 65.583 313.728C65.8255 316.006 66.4935 318.179 67.1145 320.377C67.5285 321.842 67.8708 323.285 68.3788 324.701C69.1434 326.943 69.8611 329.21 70.9574 331.397C71.656 332.832 72.3546 334.267 72.5834 335.951C72.6165 336.354 72.8153 336.731 73.0141 337.107C74.1655 339.626 75.3391 342.073 76.4905 344.592C76.717 345.133 76.8715 345.653 77.0509 346.22C77.2027 346.621 77.2827 347 77.4816 347.376C79.3564 351.377 81.1844 355.403 83.1062 359.379C83.9788 361.143 85.0393 362.808 86.0058 364.522C86.0804 364.663 86.1549 364.805 86.2295 364.946C86.9972 366.284 87.7649 367.622 88.6045 368.983C89.3695 370.203 90.1344 371.422 90.9242 372.689C91.4683 373.604 92.0841 374.541 92.6751 375.432C93.4152 376.605 94.1554 377.777 94.9674 378.972C95.8787 380.355 96.79 381.737 97.7953 383.07C99.4138 385.222 101.032 387.374 102.651 389.526C103.753 390.928 104.764 392.499 106.17 393.68C106.291 393.796 106.413 393.913 106.462 394.007C107.979 395.851 109.495 397.696 111.011 399.541C111.157 399.704 111.257 399.892 111.379 400.009C112.519 401.029 113.309 402.296 114.472 403.245C114.908 403.616 115.229 404.108 115.618 404.504C117.154 406.158 118.665 407.765 120.386 409.201C120.411 409.248 120.482 409.27 120.507 409.317C121.579 410.435 122.698 411.527 123.932 412.499C124.684 413.124 125.319 413.871 126.095 414.543C127.722 416.029 129.393 417.371 131.136 418.735C133.727 420.793 136.434 422.73 139.094 424.692C139.191 424.762 139.263 424.784 139.36 424.853C140.216 425.904 141.462 426.328 142.594 426.992C143.125 427.313 143.655 427.634 144.138 427.98C146.169 429.433 148.243 430.742 150.55 431.808C153.746 433.306 156.943 434.805 160.139 436.303C160.307 436.394 160.501 436.532 160.691 436.552C162.841 436.979 164.791 438.053 166.963 438.409C167.678 438.512 168.374 438.805 169.046 439.052C170.004 439.387 171.032 439.626 172.035 439.817C173.706 440.137 175.334 440.6 177.096 440.75C178.168 440.845 179.246 441.178 180.318 441.273C182.177 441.493 184.058 441.641 185.89 441.695C187.128 441.762 188.36 441.592 189.62 441.588C190.452 441.569 191.261 441.622 192.093 441.604C192.521 441.618 192.925 441.585 193.328 441.552C195.817 441.258 198.26 440.99 200.744 440.458C201.169 440.354 201.667 440.271 202.142 440.26C203.021 440.217 203.897 440.055 204.72 439.679C204.767 439.655 204.814 439.63 204.861 439.605C206.519 439.33 208.074 438.748 209.658 438.332C209.964 438.23 210.249 438.2 210.558 438.217C210.796 438.212 211.036 438.325 211.252 438.392C211.674 439.191 212.094 439.871 212.445 440.648C212.696 441.237 212.875 441.804 213.127 442.393C213.455 443.241 213.809 444.137 214.184 444.961C214.786 446.327 215.507 447.69 216.062 449.081C216.415 449.977 217.191 450.649 217.382 451.691C217.594 452.662 218.113 453.53 218.514 454.401C218.939 455.319 219.339 456.19 219.811 457.083C220.209 457.835 220.629 458.516 221.074 459.243C221.272 459.619 221.471 459.995 221.645 460.324C222.344 461.759 223.067 463.241 223.719 464.701C224.169 465.666 224.691 466.654 225.282 467.544C226.339 469.09 227.256 470.71 228.267 472.281C228.982 473.407 229.745 474.508 230.532 475.655C231.449 476.253 231.902 477.337 232.703 478.056C232.849 478.219 233.043 478.358 233.117 478.499C233.81 479.696 234.528 480.941 235.221 482.138C235.371 482.42 235.519 482.702 235.716 482.959C236.646 484.151 237.599 485.272 238.577 486.439C238.944 486.906 239.287 487.327 239.654 487.794C240.118 488.331 240.513 488.964 241.024 489.476C241.924 490.383 242.637 491.39 243.397 492.372C244.106 493.26 244.747 494.244 245.805 494.767C246.07 494.928 246.266 495.185 246.51 495.417C247.388 496.397 248.241 497.329 249.12 498.308C249.291 498.518 249.462 498.728 249.656 498.867C250.573 499.465 251.092 500.333 251.705 501.152C252.318 501.97 252.978 502.764 253.779 503.483C254.652 504.225 255.478 504.991 256.188 505.879C257.019 506.883 258.014 507.741 258.961 508.623C260.151 509.738 261.386 510.709 262.53 511.849C265.714 514.917 269.223 517.574 272.639 520.398C273.706 521.278 274.75 522.23 275.932 522.988C277.813 524.159 279.368 525.623 281.203 526.818C283.711 528.379 286.241 529.868 288.774 531.476C290.68 532.694 292.675 533.625 294.603 534.771C294.868 534.931 295.133 535.092 295.421 535.18C296.833 535.577 298.04 536.382 299.316 537.091C300.23 537.57 301.145 538.049 302.106 538.503C302.515 538.708 302.924 538.913 303.357 539.164C304.032 539.53 304.684 539.967 305.471 540.092C305.662 540.112 305.877 540.178 306.07 540.317C307.518 541.235 309.17 541.745 310.778 542.399C311.618 542.737 312.526 542.978 313.347 543.507C313.709 543.737 314.187 543.845 314.643 544.025C316.129 544.562 317.662 545.075 319.24 545.444C319.646 545.53 320.03 545.688 320.414 545.846C321.756 546.339 323.168 546.735 324.558 547.204C326.45 547.827 328.459 548.329 330.417 548.737C331.851 549.062 333.31 549.433 334.769 549.805C336.155 550.154 337.493 550.41 338.902 550.687C339.236 550.751 339.617 550.79 339.998 550.829C340.405 550.915 340.833 550.93 341.217 551.087C342.869 551.597 344.496 552.06 346.231 552.045C346.422 552.065 346.637 552.131 346.828 552.151C348.524 552.517 350.245 552.93 351.989 553.272C353.373 553.502 354.757 553.733 356.163 553.892C358.785 554.19 361.385 554.56 364.029 554.786C366.673 555.012 369.336 555.047 371.931 555.179C372.715 555.186 373.478 555.264 374.287 555.317C375.072 555.323 375.857 555.329 376.641 555.335C377.307 555.344 377.995 555.281 378.639 555.362C380.639 555.507 382.584 555.321 384.532 555.254C385.364 555.235 386.171 555.169 387.002 555.151C387.881 555.107 388.759 555.064 389.66 554.949C391.437 554.671 393.241 554.559 395.092 554.422C397.466 554.25 399.809 553.794 402.174 553.265C402.765 553.133 403.403 552.976 403.995 552.844C406.1 552.392 408.208 552.059 410.214 551.42C411.914 550.882 413.74 550.699 415.409 549.877C416.42 549.402 417.553 549.044 418.642 548.829C419.493 548.62 420.292 548.198 421.118 547.941C423.715 547.169 426.086 545.856 428.606 544.824C432.469 543.263 436.235 541.633 439.974 539.837C440.657 539.536 441.342 539.354 442.024 539.054C443.295 538.502 444.589 537.878 445.81 537.232C446.468 536.885 447.053 536.515 447.786 536.308C448.305 536.154 448.822 535.881 449.339 535.608C449.949 535.285 450.488 534.94 451.099 534.617C454.158 533.24 457.214 531.745 460.198 530.227C461.491 529.604 462.757 528.814 464.025 528.144C466.327 526.927 468.458 525.5 470.66 524.095C472.957 522.64 475.25 521.066 477.522 519.565C479.887 518.013 482.059 516.324 484.278 514.609C485.937 513.311 487.642 511.989 489.275 510.644C489.579 510.424 489.883 510.203 490.115 509.96C491.502 508.264 493.354 507.104 495.009 505.688C495.756 505.053 496.452 504.324 497.126 503.667C497.358 503.423 497.519 503.158 497.729 502.987C498.853 502.272 499.71 501.278 500.617 500.378C501.592 499.381 502.689 498.5 503.593 497.481C504.845 496.097 506.072 494.666 507.324 493.283C507.905 492.675 508.51 492.115 509.043 491.532C510.851 489.494 512.68 487.383 514.463 485.298C514.949 484.74 515.364 484.16 515.779 483.58C517.208 481.622 518.637 479.663 520.112 477.68C521.265 476.108 522.299 474.539 523.355 472.898C524.364 471.282 525.541 469.758 526.622 468.164C527.586 466.691 528.479 465.197 529.419 463.677C530.06 462.617 530.774 461.578 531.415 460.517C532.374 458.807 533.38 457.072 534.339 455.362C534.818 454.448 535.321 453.58 535.849 452.76C536.487 452.603 536.945 452.902 537.426 453.129C538.653 453.743 539.807 454.336 541.192 454.566C541.598 454.652 541.96 454.882 542.322 455.112C544.228 456.33 546.291 457.163 548.399 457.853C549.573 458.255 550.725 458.729 551.833 459.346C553.013 459.986 554.305 460.385 555.576 460.856C556.247 461.102 556.966 461.324 557.637 461.57C557.877 461.684 558.118 461.797 558.311 461.936C559.013 462.467 559.778 462.664 560.637 462.811C561.64 463.003 562.646 463.313 563.604 463.649C565.544 464.247 567.503 464.655 569.508 465.038C570.321 465.21 571.053 465.004 571.733 464.584C572.178 464.289 572.407 463.927 572.44 463.308C571.938 462.13 571.598 460.806 570.833 459.586C570.043 458.32 569.726 456.923 569.55 455.453C569.489 454.883 569.381 454.339 569.155 453.797C568.978 453.349 568.873 452.923 568.816 452.473C568.689 451.096 568.231 449.775 567.841 448.356C566.842 447.261 566.356 445.774 565.754 444.408C565.226 443.183 564.793 441.908 564.36 440.634C563.979 439.572 563.692 438.461 563.311 437.399C562.7 435.676 562.516 433.849 562.072 432.099C561.729 430.656 561.434 429.188 560.807 427.775C560.357 426.81 560.023 425.724 559.667 424.709C559.416 424.12 559.142 423.603 558.75 423.089C558.358 422.574 558.129 421.913 557.806 421.302C557.58 420.76 557.425 420.241 557.245 419.674C556.735 418.14 556.224 416.605 555.738 415.118C555.407 414.15 555.17 413.133 554.932 412.115C554.692 410.979 554.69 409.838 554.95 408.738C554.994 408.594 554.967 408.428 554.986 408.237C554.84 408.074 554.765 407.933 554.572 407.795C554.353 407.609 554.041 407.474 553.776 407.313C552.135 406.256 550.309 405.417 548.759 404.191C548.226 403.751 547.552 403.386 546.812 403.236C546.334 403.128 545.898 402.757 545.367 402.436C544.489 402.479 543.516 402.573 542.472 402.644C541.924 403.655 541.62 404.898 540.755 405.536C540.045 405.671 539.501 405.778 538.934 405.957C537.138 406.426 535.447 407.32 533.728 408.048C533.14 408.299 532.623 408.572 532.134 409.011C531.902 409.254 531.548 409.381 531.219 409.555C530.161 410.054 529.056 410.578 527.997 411.078C527.574 411.301 527.176 411.572 526.726 411.63C525.756 411.842 525.032 412.405 524.283 412.921C524.095 413.02 523.957 413.214 523.769 413.313C522.664 413.837 521.78 414.666 520.893 415.375C519.726 416.353 518.51 417.236 517.416 418.236C516.181 419.31 514.995 420.478 513.81 421.646C513.088 422.328 512.439 423.033 511.742 423.762C511.068 424.419 510.49 425.145 510.034 425.988C509.261 426.457 508.655 427.018 508.246 427.836C507.79 428.678 507.118 429.454 506.347 430.042C505.203 430.948 504.327 432.133 503.691 433.431C503.465 433.912 503.238 434.393 503.058 434.849C503.169 435.512 503.677 435.905 504.138 436.323C504.964 437.089 505.815 437.903 506.663 438.597C508.19 439.895 509.881 441.046 511.798 441.716C513.715 442.387 515.497 443.37 517.276 444.234C518.094 444.643 518.914 445.172 519.82 445.294C519.964 445.339 520.108 445.383 520.276 445.474C521.097 446.003 521.959 446.269 522.845 446.582C523.445 446.807 523.95 447.081 524.271 447.573C524.279 447.929 524.166 448.17 523.931 448.294C523.414 448.567 523.14 449.073 522.867 449.578C522.596 450.203 522.3 450.78 521.913 451.526C521.874 451.908 521.791 452.433 521.758 453.052C521.299 453.775 520.746 454.549 520.265 455.344C519.853 456.043 519.394 456.767 519.054 457.488C518.283 459.099 517.222 460.502 516.257 461.975C515.729 462.795 515.033 463.524 514.602 464.414C514.035 465.616 513.225 466.585 512.562 467.718C512.081 468.513 511.6 469.309 510.925 469.966C510.878 469.991 510.856 470.063 510.809 470.088C510.104 471.483 509.038 472.648 508.211 473.927C507.843 474.483 507.476 475.038 507.061 475.618C506.531 476.32 505.903 476.952 504.98 477.139C504.684 477.717 504.292 478.225 504.043 478.777C503.772 479.402 503.333 479.935 502.722 480.258C502.252 480.506 501.857 480.895 501.606 481.329C500.873 482.559 499.898 483.556 498.994 484.575C498.809 484.793 498.646 484.939 498.532 485.18C498.104 486.188 497.382 486.87 496.589 487.53C496.1 487.969 495.636 488.455 495.293 489.057C494.862 489.947 494.069 490.607 493.201 491.126C492.239 491.694 491.521 492.495 490.777 493.249C490.476 493.589 490.15 493.882 489.777 494.199C488.796 494.959 488.008 495.856 487.32 496.942C486.632 498.027 485.775 499.022 484.6 499.643C483.708 500.114 482.818 500.705 482 501.318C481.276 501.881 480.72 502.536 480.433 503.47C479.333 504.232 478.139 505.043 477.064 505.852C476.55 506.244 476.039 506.755 475.55 507.194C474.69 508.07 473.803 508.779 472.723 509.35C471.548 509.971 470.327 510.617 469.57 511.799C469.34 512.161 468.92 512.504 468.519 512.655C467.177 513.185 466.104 514.113 465.029 514.922C464.421 515.363 463.791 515.877 463.208 516.366C462.998 516.537 462.788 516.708 462.6 516.807C461.451 517.475 460.229 518.121 459.08 518.789C458.259 519.283 457.485 519.752 456.736 520.268C455.847 520.859 454.835 521.334 453.896 521.83C452.064 522.799 450.331 523.956 448.449 524.83C448.214 524.954 447.979 525.078 447.745 525.203C446.689 525.821 445.586 526.464 444.382 526.8C443.696 526.982 443.064 527.377 442.381 527.677C441.63 528.075 440.906 528.638 440.03 528.8C439.911 528.803 439.842 528.9 439.748 528.949C437.83 530.324 435.539 530.994 433.497 532.133C433.121 532.332 432.721 532.484 432.342 532.564C431.776 532.743 431.256 532.897 430.789 533.265C430.579 533.436 430.319 533.513 430.085 533.637C428.435 534.269 426.761 534.853 425.161 535.579C424.337 535.954 423.566 536.542 422.676 537.133C421.353 537.471 419.841 537.91 418.504 538.677C417.799 539.049 416.948 539.259 416.144 539.443C415.506 539.6 414.964 539.826 414.45 540.219C414.146 540.439 413.817 540.613 413.511 540.715C411.126 541.435 408.742 542.154 406.456 543.061C406.15 543.163 405.865 543.193 405.534 543.248C404.185 543.54 402.812 543.785 401.494 544.362C400.905 544.613 400.314 544.745 399.723 544.877C398.468 545.119 397.167 545.386 395.965 545.841C395.399 546.02 394.735 546.13 394.144 546.263C392.63 546.582 391.116 546.901 389.577 547.173C388.582 547.338 387.632 547.36 386.612 547.478C385.996 547.563 385.402 547.576 384.786 547.661C382.18 548.076 379.522 548.279 376.884 548.29C374.364 548.299 371.797 548.333 369.231 548.367C366.164 548.364 363.141 548.218 360.044 547.93C358.234 547.805 356.422 547.56 354.659 547.409C352.443 547.197 350.225 546.866 348.006 546.535C347.147 546.388 346.288 546.241 345.404 546.047C341.63 545.275 337.881 544.55 334.107 543.779C331.146 543.179 328.206 542.508 325.313 541.812C324.286 541.573 323.302 541.191 322.321 540.927C317.683 539.771 313.108 538.28 308.74 536.499C304.997 534.989 301.229 533.433 297.668 531.586C296.008 530.72 294.348 529.853 292.734 528.962C291.218 528.14 289.726 527.364 288.231 526.47C286.544 525.438 284.856 524.406 283.215 523.348C280.707 521.787 278.337 520.033 275.989 518.207C273.011 515.871 269.986 513.561 267.31 510.886C265.509 509.071 263.592 507.378 261.769 505.635C258.973 502.963 256.2 500.219 253.753 497.182C253.436 496.808 253.096 496.507 252.803 496.18C252.632 495.97 252.392 495.856 252.267 495.621C250.793 493.514 249.016 491.746 247.426 489.76C245.346 487.191 243.288 484.55 241.325 481.859C240.515 480.783 239.8 479.657 239.038 478.556C238.693 478.017 238.278 477.575 237.933 477.035C237.541 476.521 237.221 476.029 236.875 475.489C236.751 475.254 236.627 475.019 236.456 474.809C235.528 473.736 234.788 472.563 234.141 471.341C233.744 470.589 233.324 469.909 232.926 469.156C232.653 468.639 232.357 468.194 232.084 467.677C231.836 467.207 231.493 466.786 231.316 466.339C230.687 464.807 229.775 463.424 228.77 462.091C228.499 461.693 228.254 461.342 228.03 460.918C227.331 459.483 226.539 458.098 225.558 456.812C225.241 456.438 225.014 455.896 224.932 455.399C224.799 454.807 224.595 454.193 224.297 453.629C223.523 452.053 222.703 450.502 221.977 448.901C221.35 447.488 220.817 446.026 220.426 444.488C220.241 443.684 219.89 442.907 219.564 442.177C218.863 440.623 218.115 439.094 217.388 437.493C217.137 436.904 216.911 436.362 217.013 435.646C217.45 434.994 218.204 434.716 218.961 434.556C219.837 434.394 220.536 433.784 221.387 433.574C221.694 433.472 221.948 433.157 222.252 432.937C222.858 432.376 223.488 431.862 224.339 431.653C225.024 431.471 225.488 430.985 225.953 430.499C226.743 429.72 227.658 429.177 228.79 428.818C229.528 427.827 230.462 427.092 231.615 426.543C232.413 426.121 233.209 425.58 233.859 424.876C234.229 424.439 234.721 424.119 235.262 423.893C235.898 423.617 236.437 423.272 236.876 422.739C237.432 422.084 238.087 421.618 238.814 421.173C239.189 420.975 239.54 420.729 239.82 420.461C240.215 420.072 240.439 419.472 240.931 419.152C241.398 418.785 241.843 418.489 242.213 418.053C242.771 417.517 243.451 417.098 244.009 416.562C244.683 415.905 245.383 415.295 246.253 414.895C246.48 414.414 246.731 413.98 246.98 413.427C248.055 412.619 249.105 411.763 250.202 410.882C250.459 410.686 250.645 410.468 250.805 410.202C251.424 409.214 252.215 408.435 253.248 407.888C254 407.491 254.483 406.814 255.039 406.16C255.456 405.698 255.873 405.237 256.266 404.729C256.52 404.414 256.821 404.074 256.932 403.715C257.156 403.116 257.573 402.654 257.919 402.171C258.289 401.734 258.635 401.251 259.005 400.815C259.538 400.232 260.025 399.674 260.79 398.848C260.882 398.68 261.108 398.199 261.244 397.887C261.827 397.398 262.269 396.984 262.758 396.545C263.275 395.249 264.325 394.393 265.179 393.28C265.29 392.921 265.376 392.514 265.44 392.18C266.064 391.429 266.689 390.678 267.336 389.854C267.761 389.75 268.109 389.385 268.408 388.927C269.005 388.009 269.602 387.092 270.224 386.222C270.73 385.474 271.02 384.659 271.095 383.777C271.935 383.092 272.535 382.294 273.156 381.424C273.939 380.288 274.696 379.106 275.453 377.924C276.05 377.007 276.335 375.954 276.427 374.763C276.706 374.495 276.96 374.18 277.264 373.959C277.825 373.542 278.218 373.034 278.464 372.363C278.666 371.835 278.843 371.26 279.045 370.732C279.515 369.461 279.985 368.19 280.985 367.24C281.217 366.997 281.375 366.613 281.51 366.301C281.964 365.339 282.37 364.403 282.848 363.488C283.713 361.828 284.482 360.098 284.773 358.261C284.817 358.117 284.836 357.926 284.905 357.83C285.5 356.794 285.638 355.578 286.136 354.472C286.293 354.088 286.451 353.704 286.465 353.276C286.543 352.513 286.813 351.889 287.035 351.17C287.234 350.524 287.433 349.877 287.441 349.211C287.519 348.448 287.644 347.66 287.912 346.917C288.517 345.334 288.598 343.667 288.703 342.048C288.745 341.785 288.668 341.525 288.781 341.285C289.066 340.232 289.066 339.209 288.735 338.242C288.658 337.982 288.699 337.719 288.694 337.482C288.799 335.862 288.929 334.289 289.225 332.689C289.546 331.136 289.201 329.574 288.715 328.087C288.486 327.426 288.185 326.743 287.837 326.085C287.514 325.474 287.31 324.86 287.294 324.147C287.316 323.053 286.96 322.038 286.532 321.001C285.88 319.541 285.11 318.084 284.107 316.87C283.177 315.677 282.13 314.607 281.036 313.561C279.337 312.053 277.591 310.57 275.962 308.966C275.354 308.385 274.655 307.973 273.887 307.657C271.774 306.729 269.508 306.423 267.362 306.114C266.367 306.279 265.812 306.934 265.303 307.564C263.648 307.958 262.363 307.915 260.639 307.383C259.12 307.465 257.677 307.806 256.238 308.266C255.624 308.47 254.964 308.699 254.353 309.022C253.837 309.295 253.342 309.497 252.723 309.463C251.985 309.432 251.35 309.708 250.742 310.15C249.551 311.08 248.235 311.775 246.669 311.882C245.624 311.953 244.63 312.118 243.522 312.523C243.149 312.841 242.729 313.183 242.309 313.525C241.482 313.782 240.703 314.013 239.847 313.985C239.347 313.948 238.946 314.1 238.523 314.324C237.725 314.746 236.923 315.049 236.224 315.659C236.108 315.781 235.992 315.902 235.826 315.93C234.409 316.318 233.533 317.503 232.386 318.29C232.339 318.315 232.292 318.34 232.245 318.365C231.576 319.26 230.565 319.734 229.6 320.184C229.506 320.234 229.437 320.33 229.111 320.623C229.089 320.695 228.956 321.126 228.801 321.629C228.848 321.604 228.754 321.654 228.707 321.678C228.285 321.902 227.909 322.101 227.511 322.371C227.066 322.667 226.742 323.078 226.273 323.327C225.474 323.749 224.966 324.378 224.866 325.213C224.518 325.578 224.192 325.87 223.818 326.188C223.346 326.317 222.921 326.422 222.401 326.576C222.194 326.866 221.939 327.181 221.71 327.543C221.505 327.952 221.254 328.386 221.096 328.77C220.759 329.61 220.3 330.334 219.358 330.711C218.44 333.182 216.459 334.891 214.927 336.542C214.228 338.175 213.689 339.543 213.031 340.913C212.873 341.297 212.572 341.637 212.293 341.905C211.641 342.49 211.229 343.189 211.057 344.002C210.864 344.886 210.43 345.657 209.73 346.267C208.984 346.902 208.647 347.742 208.694 348.74C208.738 349.619 208.472 350.481 208.182 351.296C208.002 351.752 207.798 352.161 207.424 352.479C206.609 353.21 206.25 354.122 205.965 355.175C205.638 356.49 205.359 357.781 204.745 359.008C204.449 359.585 204.344 360.182 204.43 360.798C204.595 361.793 204.474 362.7 203.948 363.639C203.354 364.675 203.24 365.938 203.124 367.082C202.919 368.514 202.786 369.968 202.391 371.38C202.037 372.529 201.683 373.679 201.901 374.887C201.958 375.337 201.851 375.815 201.79 376.269C201.673 377.413 201.604 378.532 201.297 379.657C201.012 380.71 201.012 381.733 201.152 382.681C200.616 384.167 200.699 385.687 200.756 387.161C200.808 388.396 200.742 389.634 201.031 390.865C201.109 391.124 201.07 391.506 201.028 391.768C200.699 392.965 200.964 394.148 201.11 395.334C201.141 395.619 201.193 395.832 201.27 396.091C201.913 398.218 202.131 400.448 202.23 402.682C202.235 402.919 202.266 403.204 202.224 403.467C202.008 404.423 202.171 405.299 202.193 406.25C202.286 408.246 203.018 410.084 203.537 411.975C203.794 412.802 203.956 413.678 204.166 414.53C204.373 415.262 204.605 416.042 204.765 416.799C204.87 417.225 205 417.698 205.057 418.148C205.22 420.047 205.902 421.792 206.324 423.614C206.586 424.678 207.036 425.643 207.417 426.705C207.022 427.094 207.099 427.354 207.13 427.639ZM213.267 424.695C212.715 424.446 212.494 424.142 212.414 423.763C212.3 422.98 212.259 422.22 212.146 421.438C212.058 420.703 212.017 419.943 211.741 419.307C211.064 417.8 210.672 416.263 210.28 414.726C210.068 413.755 209.762 412.835 209.549 411.864C209.312 410.847 209.146 409.852 209.003 408.785C208.851 407.361 208.509 405.918 208.595 404.489C208.651 403.798 208.444 403.066 208.355 402.33C208.322 401.927 208.099 401.504 208.137 401.122C208.185 400.075 208.019 399.08 207.948 398.035C207.851 396.943 207.827 395.873 207.777 394.757C207.7 394.497 207.341 394.386 207.548 394.096C207.661 393.855 207.775 393.615 207.769 393.377C207.739 392.07 207.781 390.785 207.704 389.502C207.597 387.935 207.633 386.412 207.882 384.837C207.943 384.384 208.004 383.93 208.04 383.43C208.107 382.192 208.173 380.954 208.287 379.691C208.6 376.758 209.294 373.865 209.798 370.952C210.011 369.877 210.368 368.847 210.653 367.794C210.935 366.622 211.098 365.453 211.814 364.533C211.886 363.533 211.961 362.651 212.061 361.816C212.177 360.672 212.581 359.617 213.225 358.675C213.454 358.313 213.565 357.954 213.722 357.57C214.037 356.802 214.353 356.033 214.668 355.265C214.87 354.738 215.143 354.232 215.345 353.704C215.796 352.624 216.222 351.497 216.719 350.391C217.469 348.853 218.29 347.336 219.064 345.844C219.246 345.507 219.428 345.17 219.661 344.927C220.498 344.123 220.973 343.09 221.521 342.079C221.725 341.67 221.977 341.236 222.278 340.896C223.757 339.032 225.042 337.029 226.689 335.256C228.66 333.072 230.484 330.724 232.698 328.772C233.886 327.722 235 326.532 236.456 325.762C237.255 325.34 237.904 324.635 238.579 323.978C238.742 323.832 238.805 323.498 238.874 323.401C239.253 323.321 239.634 323.36 239.963 323.186C240.598 322.91 241.113 322.518 241.723 322.195C242.052 322.022 242.331 321.754 242.663 321.699C243.986 321.36 245.161 320.739 246.407 320.14C247.371 319.691 248.314 319.313 249.305 319.029C250.369 318.767 251.358 318.365 252.397 318.056C253.884 317.571 255.371 317.085 256.835 316.672C257.827 316.388 258.869 316.198 259.885 315.962C263.29 315.124 263.574 315.094 267.539 314.863C268.18 314.824 268.89 314.69 269.503 314.486C270.07 314.306 270.614 314.199 271.186 314.258C271.902 314.361 272.661 314.32 273.377 314.423C275.952 314.745 275.952 314.745 277.864 316.201C277.96 316.27 278.01 316.364 278.084 316.505C277.916 317.436 278.2 318.429 278.694 319.25C278.893 319.626 278.973 320.005 279.078 320.431C279.37 321.78 279.403 323.206 279.768 324.577C280.027 325.523 280.286 326.468 279.786 327.455C279.764 327.526 279.767 327.645 279.769 327.764C279.7 328.884 279.703 330.025 279.586 331.169C279.553 331.788 279.472 332.432 279.295 333.007C278.941 334.157 278.825 335.301 278.996 336.534C279.109 337.316 279.032 338.079 279.001 338.817C278.702 339.275 278.426 339.662 278.197 340.024C278.119 340.787 278.063 341.478 277.699 342.152C277.607 342.32 277.541 342.536 277.547 342.773C277.563 343.487 277.292 344.111 277.068 344.711C276.689 345.813 276.261 346.822 275.954 347.946C275.691 348.927 275.309 349.911 274.759 350.803C274.53 351.165 274.444 351.571 274.286 351.955C273.792 353.179 273.418 354.52 272.708 355.677C272.318 356.304 271.978 357.025 271.854 357.813C271.815 358.194 271.61 358.603 271.381 358.965C270.333 360.962 269.31 363.007 268.6 365.187C268.577 365.259 268.533 365.403 268.464 365.499C267.975 365.938 267.823 366.56 267.502 367.09C267.159 367.693 266.864 368.27 266.424 368.803C265.938 369.361 265.523 369.941 265.23 370.637C264.779 371.718 264.111 372.613 263.442 373.508C262.496 374.789 261.769 376.256 260.631 377.4C260.446 377.618 260.31 377.93 260.15 378.195C259.193 380.024 258.021 381.787 256.678 383.339C256.169 383.969 255.78 384.596 255.415 385.27C254.937 386.184 254.362 387.03 253.593 387.737C253.151 388.151 252.759 388.659 252.438 389.189C252.048 389.816 251.609 390.349 251.026 390.838C250.537 391.277 250.097 391.81 249.658 392.343C249.174 393.02 248.762 393.719 248.303 394.443C247.82 395.12 247.336 395.796 246.634 396.288C246.377 396.484 246.093 396.514 245.811 396.663C245.628 397 245.493 397.312 245.31 397.649C244.912 397.92 244.514 398.19 244.374 398.265C242.969 400.27 241.75 402.058 239.777 403.101C239.454 403.512 239.25 403.921 238.948 404.261C238.484 404.747 237.923 405.164 237.459 405.65C236.947 406.161 236.558 406.788 236.022 407.252C235.322 407.862 234.502 408.356 233.778 408.919C233.264 409.311 232.703 409.728 232.263 410.261C230.97 411.907 229.14 412.995 227.676 414.431C225.567 415.786 223.655 417.399 221.397 418.472C221.162 418.596 220.952 418.767 220.742 418.939C220.46 420.11 219.667 420.77 218.534 421.128C218.321 421.181 218.158 421.327 217.946 421.379C217.335 421.702 216.796 422.047 216.356 422.581C215.685 423.357 214.72 423.806 213.806 424.35C214.002 424.607 213.574 424.593 213.267 424.695ZM537.488 448.585C537.599 448.225 537.732 447.794 537.842 447.435C538.243 446.261 538.572 445.064 539.045 443.912C539.382 443.072 539.695 442.185 540.32 441.434C540.853 440.851 541.146 440.155 541.318 439.342C541.401 438.817 541.649 438.265 541.826 437.69C542.512 435.463 543.654 433.416 544.268 431.166C544.334 430.951 544.425 430.782 544.517 430.614C544.787 429.989 545.13 429.387 545.329 428.741C545.775 427.423 546.22 426.105 546.905 424.9C547.157 424.466 547.312 423.963 547.516 423.554C548.179 423.444 548.475 423.89 548.721 424.241C549.215 425.062 549.687 425.955 550.088 426.826C550.714 428.239 550.94 429.804 551.686 431.214C551.761 431.355 551.788 431.521 551.791 431.64C552.128 432.845 552.346 434.053 552.776 435.209C553.182 436.318 553.353 437.551 553.991 438.416C554.079 439.152 554.093 439.746 554.225 440.337C554.573 442.018 554.636 443.729 555.197 445.358C555.221 445.405 555.199 445.477 555.224 445.524C555.351 446.9 555.665 448.177 556.099 449.452C556.734 451.221 557.156 453.043 558.026 454.689C558.299 455.206 558.454 455.725 558.633 456.292C558.735 456.599 558.672 456.933 558.343 457.107C557.92 457.331 557.511 457.126 557.127 456.968C554.539 456.051 551.95 455.134 549.384 454.145C548.569 453.854 547.82 453.348 546.961 453.2C546.817 453.156 546.696 453.04 546.552 452.996C544.848 452.273 543.165 451.478 541.414 450.78C540.118 450.262 538.958 449.432 537.753 448.745C537.637 448.867 537.588 448.773 537.488 448.585ZM526.225 443.652C525.651 443.475 525.245 443.389 524.885 443.278C523.637 442.735 522.388 442.193 521.211 441.672C520.275 441.265 519.338 440.858 518.377 440.404C517.753 440.132 517.15 439.789 516.736 439.346C516.311 438.428 516.723 437.729 517.353 437.216C518.729 436.067 519.718 434.642 520.973 433.377C522.159 432.209 523.03 430.786 524.433 429.803C526.172 427.862 528.106 426.178 530.112 424.515C531.022 423.734 531.981 423.047 532.915 422.312C533.266 422.066 533.686 421.724 534.285 421.948C534.512 422.49 534.644 423.082 534.42 423.682C534.061 424.593 533.726 425.552 533.367 426.464C533.209 426.848 533.027 427.185 532.941 427.591C532.725 428.547 532.438 429.481 531.838 430.28C531.7 430.473 531.611 430.76 531.498 431.001C530.914 432.512 530.378 433.999 529.841 435.485C529.728 435.726 529.615 435.966 529.501 436.206C529.098 437.262 528.647 438.342 528.243 439.398C527.972 440.022 527.773 440.669 527.503 441.293C527.069 442.064 526.657 442.763 526.225 443.652Z" fill="#FECF08"/>
</svg>
