<svg width="157" height="170" viewBox="0 0 157 170" fill="none" xmlns="http://www.w3.org/2000/svg">
<path d="M100.659 150.829L94.1417 147.611L89.6611 145.198L86.8099 143.589L83.144 141.578L81.5147 140.773L79.4781 139.566L76.6268 137.957L72.9609 135.946L69.2951 134.337L66.8511 133.131L63.1852 131.522L58.7047 129.913L54.2241 128.706L49.3363 127.499L45.2631 126.292L41.1898 125.488L37.5239 125.086H32.2288L27.7482 125.488L22.8831 126.086L20.4164 126.49L17.2246 127.298L12.3746 129.108L13.9913 127.499L16.7505 125.488L22.0457 123.075L26.9336 121.466L31.4141 120.259L38.7459 119.454H45.6704L53.4095 119.857L55.4461 120.259L57.89 120.661L58.2974 113.823L58.7047 109.398L59.9266 102.56L61.5559 95.3201L63.1852 89.2865L64.8145 84.0574L66.8511 78.8283L68.4804 74.4037L70.517 69.9791L74.9976 61.1298L77.0342 56.7052L74.5902 58.3142L72.1463 61.5321L70.517 64.3477L68.8877 67.9679L66.4438 73.197L64.4072 78.8283L63.1852 82.0462L60.7413 89.2865L59.9266 93.1247L57.89 86.8731L55.4461 82.0462L52.5949 77.6216L49.3363 74.4037L45.2631 70.7836L34.2654 62.3365L31.0068 59.5209L28.1555 56.7052L25.3043 53.4873L22.453 49.4649L19.1945 44.6381L17.5652 41.0179L16.3432 36.9955L15.5286 33.7776V21.3082L15.9359 16.4814L16.7505 13.5508L17.5652 11.2523L18.3798 8.83882L19.6018 6.02315L21.6384 2.00077L22.453 1.19629V26.1351L22.8604 30.5597L23.2677 32.9731L24.897 37.8L26.5263 41.8224L28.1555 45.0403L29.7848 47.856L31.8214 50.6716L33.0434 52.2806L34.6727 53.8895L36.302 55.9007L55.0388 74.4037L56.6681 75.6104L53.4095 70.7836L50.1509 66.7612L48.1143 63.9455L46.0777 62.3365L44.4484 60.3254L42.8191 58.7164L39.9679 55.0963L37.5239 52.2806L35.8947 49.4649L33.4507 45.0403L31.4141 41.8224L29.7848 37.8L28.5629 34.5821L26.5263 28.5485V11.2523L27.7482 14.4702L30.5995 18.0903L33.858 21.3082L36.7093 23.7216L38.7459 24.9284L41.1898 26.5373L44.0411 28.1463L46.8923 30.1575L48.929 31.3642L49.7436 31.7664V28.9507L53.8168 30.1575L58.2974 31.7664L61.5559 33.3754L64.4072 34.9843L67.6658 36.9955L70.1097 39.0067L73.3683 42.2246L75.4049 44.6381L76.6268 46.6492L78.2561 50.6716L79.0708 51.8783L80.7001 50.6716L84.366 47.4537L86.4026 45.8448L88.8465 43.8336L91.2904 42.2246L94.1417 40.6157L97.8076 39.0067L102.288 37.3978L105.139 36.5933L109.213 35.3866L112.471 34.5821L115.933 33.9787L117.766 33.7776V37.8L119.396 38.2022L122.247 36.5933L125.098 35.3866L127.542 34.5821L131.208 33.7776L133.652 32.9731L136.91 31.7664L138.947 30.1575L141.798 27.3418L143.428 26.1351L144.242 25.7328L143.835 28.5485L143.02 31.7664L142.206 35.3866L140.576 40.2134L139.762 42.2246L138.54 45.0403L136.096 48.6604L134.059 51.0739L131.615 53.8895L128.764 56.7052L125.505 59.1186L123.062 61.1298L118.581 65.1522L122.247 63.5433L125.505 61.5321L128.357 59.9231L130.801 57.9119L132.43 56.7052L135.281 53.8895L138.132 50.6716L140.576 47.0515L143.835 41.0179L146.279 35.7888L147.501 31.3642L148.315 25.7328L150.759 23.3194L152.389 21.3082L153.611 18.8948L154.833 15.2746L155.24 14.4702L156.055 17.6881L156.462 20.1015V32.9731L156.055 36.5933L154.833 40.6157L151.574 48.6604L149.13 52.6828L146.279 56.303L141.798 60.3254L137.725 63.5433L130.801 66.7612L123.062 69.5768L114.915 71.588L105.954 73.5992L99.0295 75.6104L92.1051 78.0238L86.8099 81.2418L80.7001 85.2641L77.6451 87.6892L74.6171 90.9226L71.3317 95.7224L68.4804 100.549L66.5337 103.856L65.3212 107.494L64.8145 110.203V123.075L67.2584 123.879L70.1097 125.086L72.1463 125.89V100.549L73.7756 97.3313L76.2195 93.7112L77.6451 91.9011L79.0708 90.091L83.5513 86.8731L86.8099 84.4597L89.1673 82.8391L94.0174 90.1142L99.0295 97.3313L104.325 105.376L108.972 111.94L114.915 120.661L118.174 125.488L121.501 130.127L125.913 135.946L127.542 137.957V90.4932L126.32 88.8843L124.691 87.2753L122.654 86.8731H120.618V83.253H140.576V86.8731H138.132L135.689 88.4821L134.467 90.091V157.265H125.913L79.0708 90.091L77.6451 91.9011V130.717L84.366 135.946L89.6611 140.773L92.5124 143.186L100.659 150.829Z" fill="url(#paint0_linear_157_392)"/>
<path d="M14.7139 130.717L8.6041 133.131L5.50364 134.573L2.67443 136.751L1.46191 138.211L6.16017 136.751L9.54536 135.786L13.492 135.142L16.7505 134.797H20.4164L26.1189 135.199L31.4141 135.946L34.6727 136.751L39.1532 138.36L48.929 142.382L53.8168 144.795L59.6626 147.507L64.4072 150.025L69.2951 152.84L73.7756 155.254L77.4463 157.207L81.488 159.228L85.1806 160.885L89.5715 162.865L92.4007 164.078L95.771 165.31L98.4632 166.099L101.292 166.907L107.759 168.524L110.435 168.93L113.013 169.332H118.174L122.309 168.93L125.543 168.524L129.579 167.723L132.43 166.919L135.243 166.099L137.725 165.31L141.71 163.674L144.943 162.092L147.501 160.483L149.389 158.419L146.964 159.228L144.135 160.44L141.306 161.249L138.881 161.653L135.647 162.092H126.32L120.618 161.689L115.73 160.885L110.842 159.678L101.881 156.058L83.9586 147.209L74.1829 141.98L66.8511 138.36L59.9266 135.142L53.0022 132.728L46.485 130.717L40.3752 129.51L36.7093 129.108H22.8604L19.1945 129.51L14.7139 130.717Z" fill="url(#paint1_linear_157_392)"/>
<path d="M14.7139 130.524L8.6041 132.937L5.50364 134.38L2.67443 136.557L1.46191 138.017L6.16017 136.557L9.54536 135.592L13.492 134.948L16.7505 134.604H20.4164L26.1189 135.006L31.4141 135.753L34.6727 136.557L39.1532 138.166L48.929 142.189L53.8168 144.602L59.6626 147.313L64.4072 149.831L69.2951 152.647L73.7756 155.06L77.4463 157.013L81.488 159.034L85.1806 160.692L89.5715 162.672L92.4007 163.884L95.771 165.116L98.4632 165.905L101.292 166.714L107.759 168.33L110.435 168.736L113.013 169.139H118.174L122.309 168.736L125.543 168.33L129.579 167.53L132.43 166.725L135.243 165.905L137.725 165.116L141.71 163.48L144.943 161.898L147.501 160.289L149.389 158.226L146.964 159.034L144.135 160.247L141.306 161.055L138.881 161.459L135.647 161.898H126.32L120.618 161.496L115.73 160.692L110.842 159.485L101.881 155.865L83.9586 147.016L74.1829 141.786L66.8511 138.166L59.9266 134.948L53.0022 132.535L46.485 130.524L40.3752 129.317L36.7093 128.915H22.8604L19.1945 129.317L14.7139 130.524Z" fill="#1D3B51"/>
<path d="M79.0708 90.091L83.5513 86.8731L86.8099 84.4597L89.1673 82.8391L94.0174 90.1142L99.0295 97.3313L104.325 105.376L108.972 111.94L114.915 120.661L118.174 125.488L121.501 130.127L125.913 135.946L127.542 137.957V90.4932L126.32 88.8843L124.691 87.2753L122.654 86.8731H120.618V83.253H140.576V86.8731H138.132L135.689 88.4821L134.467 90.091V157.265H125.913L79.0708 90.091ZM79.0708 90.091L77.6451 91.9011M77.6451 91.9011L76.2195 93.7112L73.7756 97.3313L72.1463 100.549V125.89L70.1097 125.086L67.2584 123.879L64.8145 123.075V110.203L65.3212 107.494L66.5337 103.856L68.4804 100.549L71.3317 95.7224L74.6171 90.9226L77.6451 87.6892L80.7001 85.2641L86.8099 81.2418L92.1051 78.0238L99.0295 75.6104L105.954 73.5992L114.915 71.588L123.062 69.5768L130.801 66.7612L137.725 63.5433L141.798 60.3254L146.279 56.303L149.13 52.6828L151.574 48.6604L154.833 40.6157L156.055 36.5933L156.462 32.9731V20.1015L156.055 17.6881L155.24 14.4702L154.833 15.2746L153.611 18.8948L152.389 21.3082L150.759 23.3194L148.315 25.7328L147.501 31.3642L146.279 35.7888L143.835 41.0179L140.576 47.0515L138.132 50.6716L135.281 53.8895L132.43 56.7052L130.801 57.9119L128.357 59.9231L125.505 61.5321L122.247 63.5433L118.581 65.1522L123.062 61.1298L125.505 59.1186L128.764 56.7052L131.615 53.8895L134.059 51.0739L136.096 48.6604L138.54 45.0403L139.762 42.2246L140.576 40.2134L142.206 35.3866L143.02 31.7664L143.835 28.5485L144.242 25.7328L143.428 26.1351L141.798 27.3418L138.947 30.1575L136.91 31.7664L133.652 32.9731L131.208 33.7776L127.542 34.5821L125.098 35.3866L122.247 36.5933L119.396 38.2022L117.766 37.8V33.7776L115.933 33.9787L112.471 34.5821L109.213 35.3866L105.139 36.5933L102.288 37.3978L97.8076 39.0067L94.1417 40.6157L91.2904 42.2246L88.8465 43.8336L86.4026 45.8448L84.366 47.4537L80.7001 50.6716L79.0708 51.8783L78.2561 50.6716L76.6268 46.6492L75.4049 44.6381L73.3683 42.2246L70.1097 39.0067L67.6658 36.9955L64.4072 34.9843L61.5559 33.3754L58.2974 31.7664L53.8168 30.1575L49.7436 28.9507V31.7664L48.929 31.3642L46.8923 30.1575L44.0411 28.1463L41.1898 26.5373L38.7459 24.9284L36.7093 23.7216L33.858 21.3082L30.5995 18.0903L27.7482 14.4702L26.5263 11.2523V28.5485L28.5629 34.5821L29.7848 37.8L31.4141 41.8224L33.4507 45.0403L35.8947 49.4649L37.5239 52.2806L39.9679 55.0963L42.8191 58.7164L44.4484 60.3254L46.0777 62.3365L48.1143 63.9455L50.1509 66.7612L53.4095 70.7836L56.6681 75.6104L55.0388 74.4037L36.302 55.9007L34.6727 53.8895L33.0434 52.2806L31.8214 50.6716L29.7848 47.856L28.1555 45.0403L26.5263 41.8224L24.897 37.8L23.2677 32.9731L22.8604 30.5597L22.453 26.1351V1.19629L21.6384 2.00077L19.6018 6.02315L18.3798 8.83882L17.5652 11.2523L16.7505 13.5508L15.9359 16.4814L15.5286 21.3082V33.7776L16.3432 36.9955L17.5652 41.0179L19.1945 44.6381L22.453 49.4649L25.3043 53.4873L28.1555 56.7052L31.0068 59.5209L34.2654 62.3365L45.2631 70.7836L49.3363 74.4037L52.5949 77.6216L55.4461 82.0462L57.89 86.8731L59.9266 93.1247L60.7413 89.2865L63.1852 82.0462L64.4072 78.8283L66.4438 73.197L68.8877 67.9679L70.517 64.3477L72.1463 61.5321L74.5902 58.3142L77.0342 56.7052L74.9976 61.1298L70.517 69.9791L68.4804 74.4037L66.8511 78.8283L64.8145 84.0574L63.1852 89.2865L61.5559 95.3201L59.9266 102.56L58.7047 109.398L58.2974 113.823L57.89 120.661L55.4461 120.259L53.4095 119.857L45.6704 119.454H38.7459L31.4141 120.259L26.9336 121.466L22.0457 123.075L16.7505 125.488L13.9913 127.499L12.3746 129.108L17.2246 127.298L20.4164 126.49L22.8831 126.086L27.7482 125.488L32.2288 125.086H37.5239L41.1898 125.488L45.2631 126.292L49.3363 127.499L54.2241 128.706L58.7047 129.913L63.1852 131.522L66.8511 133.131L69.2951 134.337L72.9609 135.946L76.6268 137.957L79.4781 139.566L81.5147 140.773L83.144 141.578L86.8099 143.589L89.6611 145.198L94.1417 147.611L100.659 150.829L92.5124 143.186L89.6611 140.773L84.366 135.946L77.6451 130.717V91.9011ZM8.6041 133.131L14.7139 130.717L19.1945 129.51L22.8604 129.108H36.7093L40.3752 129.51L46.485 130.717L53.0022 132.728L59.9266 135.142L66.8511 138.36L74.1829 141.98L83.9586 147.209L101.881 156.058L110.842 159.678L115.73 160.885L120.618 161.689L126.32 162.092H135.647L138.881 161.653L141.306 161.249L144.135 160.44L146.964 159.228L149.389 158.419L147.501 160.483L144.943 162.092L141.71 163.674L137.725 165.31L135.243 166.099L132.43 166.919L129.579 167.723L125.543 168.524L122.309 168.93L118.174 169.332H113.013L110.435 168.93L107.759 168.524L101.292 166.907L98.4632 166.099L95.771 165.31L92.4007 164.078L89.5715 162.865L85.1806 160.885L81.488 159.228L77.4463 157.207L73.7756 155.254L69.2951 152.84L64.4072 150.025L59.6626 147.507L53.8168 144.795L48.929 142.382L39.1532 138.36L34.6727 136.751L31.4141 135.946L26.1189 135.199L20.4164 134.797H16.7505L13.492 135.142L9.54536 135.786L6.16017 136.751L1.46191 138.211L2.67443 136.751L5.50364 134.573L8.6041 133.131ZM60.334 66.7612L57.4827 63.141L55.8534 61.1298L54.6315 58.7164L52.1875 53.0851L50.5582 49.4649L48.929 45.0403L48.1143 41.8224L47.707 39.8112V34.1798L49.1543 35.9551L50.5582 37.8L51.3729 39.8112L53.0022 45.0403L54.6315 49.4649L55.8534 53.0851L56.6681 55.0963L58.2974 58.7164L59.5193 62.3365L60.334 66.7612ZM8.6041 132.937L14.7139 130.524L19.1945 129.317L22.8604 128.915H36.7093L40.3752 129.317L46.485 130.524L53.0022 132.535L59.9266 134.948L66.8511 138.166L74.1829 141.786L83.9586 147.016L101.881 155.865L110.842 159.485L115.73 160.692L120.618 161.496L126.32 161.898H135.647L138.881 161.459L141.306 161.055L144.135 160.247L146.964 159.034L149.389 158.226L147.501 160.289L144.943 161.898L141.71 163.48L137.725 165.116L135.243 165.905L132.43 166.725L129.579 167.53L125.543 168.33L122.309 168.736L118.174 169.139H113.013L110.435 168.736L107.759 168.33L101.292 166.714L98.4632 165.905L95.771 165.116L92.4007 163.884L89.5715 162.672L85.1806 160.692L81.488 159.034L77.4463 157.013L73.7756 155.06L69.2951 152.647L64.4072 149.831L59.6626 147.313L53.8168 144.602L48.929 142.189L39.1532 138.166L34.6727 136.557L31.4141 135.753L26.1189 135.006L20.4164 134.604H16.7505L13.492 134.948L9.54536 135.592L6.16017 136.557L1.46191 138.017L2.67443 136.557L5.50364 134.38L8.6041 132.937Z" stroke="#1D3B51"/>
<defs>
<linearGradient id="paint0_linear_157_392" x1="78.0526" y1="169.332" x2="78.0526" y2="1.19629" gradientUnits="userSpaceOnUse">
<stop stop-color="#BA8B47"/>
<stop offset="0.5" stop-color="#F1CE80"/>
<stop offset="1" stop-color="#B8883E"/>
</linearGradient>
<linearGradient id="paint1_linear_157_392" x1="78.0526" y1="169.332" x2="78.0526" y2="1.19629" gradientUnits="userSpaceOnUse">
<stop stop-color="#BA8B47"/>
<stop offset="0.5" stop-color="#F1CE80"/>
<stop offset="1" stop-color="#B8883E"/>
</linearGradient>
</defs>
</svg>
